REM DIRINDEX 1\2,1\3,1\4,1\5,1\6
REM DIRNAME cjc030,folder01,folder02,folder03,folder04,folder05
TITLE ""
FILE "Disc2Track42.mp3" MP3
  TRACK 01 AUDIO
    TITLE "2:cjc030_03325"
    INDEX 01 00:00:00
  TRACK 02 AUDIO
    TITLE "0:"
    INDEX 01 00:04:54
  TRACK 03 AUDIO
    TITLE "3:cjc030_03326"
    INDEX 01 00:05:14
  TRACK 04 AUDIO
    TITLE "0:"
    INDEX 01 00:06:12
  TRACK 05 AUDIO
    TITLE "4:cjc030_03327"
    INDEX 01 00:06:22
  TRACK 06 AUDIO
    TITLE "0:"
    INDEX 01 00:08:50
  TRACK 07 AUDIO
    TITLE "5:cjc030_03328"
    INDEX 01 00:08:58
  TRACK 08 AUDIO
    TITLE "0:"
    INDEX 01 00:09:57
  TRACK 09 AUDIO
    TITLE "6:cjc030_03329"
    INDEX 01 00:09:71
  TRACK 10 AUDIO
    TITLE "0:"
    INDEX 01 00:13:39
  TRACK 11 AUDIO
    TITLE "3:cjc030_03330"
    INDEX 01 00:14:13
  TRACK 12 AUDIO
    TITLE "0:"
    INDEX 01 00:15:25
  TRACK 13 AUDIO
    TITLE "4:cjc030_03331"
    INDEX 01 00:15:34
  TRACK 14 AUDIO
    TITLE "0:"
    INDEX 01 00:17:23
  TRACK 15 AUDIO
    TITLE "5:cjc030_03332"
    INDEX 01 00:17:31
  TRACK 16 AUDIO
    TITLE "0:"
    INDEX 01 00:18:42
  TRACK 17 AUDIO
    TITLE "3:cjc030_03333"
    INDEX 01 00:19:24
  TRACK 18 AUDIO
    TITLE "0:"
    INDEX 01 00:20:45
  TRACK 19 AUDIO
    TITLE "4:cjc030_03334"
    INDEX 01 00:20:51
  TRACK 20 AUDIO
    TITLE "0:"
    INDEX 01 00:21:51
  TRACK 21 AUDIO
    TITLE "5:cjc030_03335"
    INDEX 01 00:21:58
  TRACK 22 AUDIO
    TITLE "0:"
    INDEX 01 00:23:04
  TRACK 23 AUDIO
    TITLE "3:cjc030_03336"
    INDEX 01 00:23:61
  TRACK 24 AUDIO
    TITLE "0:"
    INDEX 01 00:24:72
  TRACK 25 AUDIO
    TITLE "4:cjc030_03337"
    INDEX 01 00:25:07
  TRACK 26 AUDIO
    TITLE "0:"
    INDEX 01 00:27:22
  TRACK 27 AUDIO
    TITLE "5:cjc030_03338"
    INDEX 01 00:27:30
  TRACK 28 AUDIO
    TITLE "0:"
    INDEX 01 00:28:39
  TRACK 29 AUDIO
    TITLE "3:cjc030_03339"
    INDEX 01 00:29:21
  TRACK 30 AUDIO
    TITLE "0:"
    INDEX 01 00:30:36
  TRACK 31 AUDIO
    TITLE "4:cjc030_03340"
    INDEX 01 00:30:46
  TRACK 32 AUDIO
    TITLE "0:"
    INDEX 01 00:31:57
  TRACK 33 AUDIO
    TITLE "5:cjc030_03341"
    INDEX 01 00:31:63
  TRACK 34 AUDIO
    TITLE "0:"
    INDEX 01 00:33:03
  TRACK 35 AUDIO
    TITLE "6:cjc030_03342"
    INDEX 01 00:33:19
  TRACK 36 AUDIO
    TITLE "0:"
    INDEX 01 00:36:42
  TRACK 37 AUDIO
    TITLE "3:cjc030_03343"
    INDEX 01 00:37:14
  TRACK 38 AUDIO
    TITLE "0:"
    INDEX 01 00:38:31
  TRACK 39 AUDIO
    TITLE "4:cjc030_03344"
    INDEX 01 00:38:39
  TRACK 40 AUDIO
    TITLE "0:"
    INDEX 01 00:39:60
  TRACK 41 AUDIO
    TITLE "5:cjc030_03345"
    INDEX 01 00:39:66
  TRACK 42 AUDIO
    TITLE "0:"
    INDEX 01 00:41:10
  TRACK 43 AUDIO
    TITLE "6:cjc030_03346"
    INDEX 01 00:41:24
  TRACK 44 AUDIO
    TITLE "0:"
    INDEX 01 00:43:37
  TRACK 45 AUDIO
    TITLE "3:cjc030_03347"
    INDEX 01 00:44:11
  TRACK 46 AUDIO
    TITLE "0:"
    INDEX 01 00:45:26
  TRACK 47 AUDIO
    TITLE "4:cjc030_03348"
    INDEX 01 00:45:39
  TRACK 48 AUDIO
    TITLE "0:"
    INDEX 01 00:47:58
  TRACK 49 AUDIO
    TITLE "5:cjc030_03349"
    INDEX 01 00:47:66
  TRACK 50 AUDIO
    TITLE "0:"
    INDEX 01 00:49:12
  TRACK 51 AUDIO
    TITLE "6:cjc030_03350"
    INDEX 01 00:49:20
  TRACK 52 AUDIO
    TITLE "0:"
    INDEX 01 00:55:16
  TRACK 53 AUDIO
    TITLE "3:cjc030_03351"
    INDEX 01 00:55:63
  TRACK 54 AUDIO
    TITLE "0:"
    INDEX 01 00:57:03
  TRACK 55 AUDIO
    TITLE "4:cjc030_03352"
    INDEX 01 00:57:13
  TRACK 56 AUDIO
    TITLE "0:"
    INDEX 01 00:58:24
  TRACK 57 AUDIO
    TITLE "5:cjc030_03353"
    INDEX 01 00:58:30
  TRACK 58 AUDIO
    TITLE "0:"
    INDEX 01 00:59:49
  TRACK 59 AUDIO
    TITLE "6:cjc030_03354"
    INDEX 01 00:59:61
  TRACK 60 AUDIO
    TITLE "0:"
    INDEX 01 01:02:01
